<svg viewBox="0 0 120 120" fill="none" xmlns="http://www.w3.org/2000/svg">
  <defs>
    <linearGradient id="g" x1="25" y1="25" x2="100" y2="100" gradientUnits="userSpaceOnUse">
      <stop offset="0%" stop-color="#22d3ee"/>
      <stop offset="100%" stop-color="#06b6d4"/>
    </linearGradient>
  </defs>
  <rect width="120" height="120" rx="26" fill="#0f172a"/>
  <g stroke="url(#g)">
    <circle cx="52" cy="50" r="28" stroke-width="5" fill="none"/>
    <circle cx="52" cy="50" r="21" stroke-width="3" fill="none" opacity="0.4"/>
    <line x1="73" y1="72" x2="95" y2="94" stroke-width="7" stroke-linecap="round"/>
  </g>
  <g fill="url(#g)" stroke="url(#g)" stroke-width="1.8">
    <circle cx="52" cy="50" r="4" stroke="none"/>
    <line x1="52" y1="50" x2="52" y2="35"/><line x1="52" y1="50" x2="63" y2="39"/>
    <line x1="52" y1="50" x2="67" y2="50"/><line x1="52" y1="50" x2="63" y2="61"/>
    <line x1="52" y1="50" x2="52" y2="65"/><line x1="52" y1="50" x2="41" y2="61"/>
    <line x1="52" y1="50" x2="37" y2="50"/><line x1="52" y1="50" x2="41" y2="39"/>
    <circle cx="52" cy="35" r="2.5" stroke="none"/><circle cx="63" cy="39" r="2.5" stroke="none"/>
    <circle cx="67" cy="50" r="2.5" stroke="none"/><circle cx="63" cy="61" r="2.5" stroke="none"/>
    <circle cx="52" cy="65" r="2.5" stroke="none"/><circle cx="41" cy="61" r="2.5" stroke="none"/>
    <circle cx="37" cy="50" r="2.5" stroke="none"/><circle cx="41" cy="39" r="2.5" stroke="none"/>
  </g>
</svg>
